<?xml version="1.0" encoding="UTF-8" standalone="no"?>
<!DOCTYPE svg PUBLIC "-//W3C//DTD SVG 1.1//EN"
 "http://www.w3.org/Graphics/SVG/1.1/DTD/svg11.dtd">
<!-- Generated by graphviz version 2.50.0 (20220117.2223)
 -->
<!-- Title: Tree Pages: 1 -->
<svg width="838pt" height="552pt"
 viewBox="0.00 0.00 837.50 552.00" xmlns="http://www.w3.org/2000/svg" xmlns:xlink="http://www.w3.org/1999/xlink">
<g id="graph0" class="graph" transform="scale(1 1) rotate(0) translate(4 548)">
<title>Tree</title>
<polygon fill="white" stroke="transparent" points="-4,4 -4,-548 833.5,-548 833.5,4 -4,4"/>
<!-- 0 -->
<g id="node1" class="node">
<title>0</title>
<polygon fill="#fffdfc" stroke="black" points="429.5,-544 262.5,-544 262.5,-461 429.5,-461 429.5,-544"/>
<text text-anchor="middle" x="346" y="-528.8" font-family="Helvetica,sans-Serif" font-size="14.00">MolLogP &lt;= 3.129</text>
<text text-anchor="middle" x="346" y="-513.8" font-family="Helvetica,sans-Serif" font-size="14.00">gini = 0.5</text>
<text text-anchor="middle" x="346" y="-498.8" font-family="Helvetica,sans-Serif" font-size="14.00">samples = 4776</text>
<text text-anchor="middle" x="346" y="-483.8" font-family="Helvetica,sans-Serif" font-size="14.00">value = [2405, 2371]</text>
<text text-anchor="middle" x="346" y="-468.8" font-family="Helvetica,sans-Serif" font-size="14.00">class = Is a Blocker</text>
</g>
<!-- 1 -->
<g id="node2" class="node">
<title>1</title>
<polygon fill="#f0b88f" stroke="black" points="325,-425 167,-425 167,-342 325,-342 325,-425"/>
<text text-anchor="middle" x="246" y="-409.8" font-family="Helvetica,sans-Serif" font-size="14.00">MolLogP &lt;= 2.325</text>
<text text-anchor="middle" x="246" y="-394.8" font-family="Helvetica,sans-Serif" font-size="14.00">gini = 0.423</text>
<text text-anchor="middle" x="246" y="-379.8" font-family="Helvetica,sans-Serif" font-size="14.00">samples = 1475</text>
<text text-anchor="middle" x="246" y="-364.8" font-family="Helvetica,sans-Serif" font-size="14.00">value = [1027, 448]</text>
<text text-anchor="middle" x="246" y="-349.8" font-family="Helvetica,sans-Serif" font-size="14.00">class = Is a Blocker</text>
</g>
<!-- 0&#45;&gt;1 -->
<g id="edge1" class="edge">
<title>0&#45;&gt;1</title>
<path fill="none" stroke="black" d="M311.31,-460.91C303.55,-451.83 295.25,-442.12 287.26,-432.77"/>
<polygon fill="black" stroke="black" points="289.79,-430.35 280.63,-425.02 284.47,-434.9 289.79,-430.35"/>
<text text-anchor="middle" x="278.68" y="-446.24" font-family="Helvetica,sans-Serif" font-size="14.00">True</text>
</g>
<!-- 4 -->
<g id="node5" class="node">
<title>4</title>
<polygon fill="#c7e3f8" stroke="black" points="536.5,-425 357.5,-425 357.5,-342 536.5,-342 536.5,-425"/>
<text text-anchor="middle" x="447" y="-409.8" font-family="Helvetica,sans-Serif" font-size="14.00">TPSA &lt;= 81.255</text>
<text text-anchor="middle" x="447" y="-394.8" font-family="Helvetica,sans-Serif" font-size="14.00">gini = 0.486</text>
<text text-anchor="middle" x="447" y="-379.8" font-family="Helvetica,sans-Serif" font-size="14.00">samples = 3301</text>
<text text-anchor="middle" x="447" y="-364.8" font-family="Helvetica,sans-Serif" font-size="14.00">value = [1378, 1923]</text>
<text text-anchor="middle" x="447" y="-349.8" font-family="Helvetica,sans-Serif" font-size="14.00">class = Is not a Blocker</text>
</g>
<!-- 0&#45;&gt;4 -->
<g id="edge4" class="edge">
<title>0&#45;&gt;4</title>
<path fill="none" stroke="black" d="M381.04,-460.91C388.88,-451.83 397.26,-442.12 405.33,-432.77"/>
<polygon fill="black" stroke="black" points="408.14,-434.88 412.02,-425.02 402.84,-430.3 408.14,-434.88"/>
<text text-anchor="middle" x="413.85" y="-446.25" font-family="Helvetica,sans-Serif" font-size="14.00">False</text>
</g>
<!-- 2 -->
<g id="node3" class="node">
<title>2</title>
<polygon fill="#eb9f68" stroke="black" points="152,-298.5 0,-298.5 0,-230.5 152,-230.5 152,-298.5"/>
<text text-anchor="middle" x="76" y="-283.3" font-family="Helvetica,sans-Serif" font-size="14.00">gini = 0.311</text>
<text text-anchor="middle" x="76" y="-268.3" font-family="Helvetica,sans-Serif" font-size="14.00">samples = 581</text>
<text text-anchor="middle" x="76" y="-253.3" font-family="Helvetica,sans-Serif" font-size="14.00">value = [469, 112]</text>
<text text-anchor="middle" x="76" y="-238.3" font-family="Helvetica,sans-Serif" font-size="14.00">class = Is a Blocker</text>
</g>
<!-- 1&#45;&gt;2 -->
<g id="edge2" class="edge">
<title>1&#45;&gt;2</title>
<path fill="none" stroke="black" d="M187.02,-341.91C169.38,-329.77 150.09,-316.49 132.61,-304.46"/>
<polygon fill="black" stroke="black" points="134.41,-301.45 124.19,-298.67 130.44,-307.22 134.41,-301.45"/>
</g>
<!-- 3 -->
<g id="node4" class="node">
<title>3</title>
<polygon fill="#f5cdb0" stroke="black" points="322,-298.5 170,-298.5 170,-230.5 322,-230.5 322,-298.5"/>
<text text-anchor="middle" x="246" y="-283.3" font-family="Helvetica,sans-Serif" font-size="14.00">gini = 0.469</text>
<text text-anchor="middle" x="246" y="-268.3" font-family="Helvetica,sans-Serif" font-size="14.00">samples = 894</text>
<text text-anchor="middle" x="246" y="-253.3" font-family="Helvetica,sans-Serif" font-size="14.00">value = [558, 336]</text>
<text text-anchor="middle" x="246" y="-238.3" font-family="Helvetica,sans-Serif" font-size="14.00">class = Is a Blocker</text>
</g>
<!-- 1&#45;&gt;3 -->
<g id="edge3" class="edge">
<title>1&#45;&gt;3</title>
<path fill="none" stroke="black" d="M246,-341.91C246,-331.2 246,-319.62 246,-308.78"/>
<polygon fill="black" stroke="black" points="249.5,-308.67 246,-298.67 242.5,-308.67 249.5,-308.67"/>
</g>
<!-- 5 -->
<g id="node6" class="node">
<title>5</title>
<polygon fill="#a1d1f3" stroke="black" points="554,-306 340,-306 340,-223 554,-223 554,-306"/>
<text text-anchor="middle" x="447" y="-290.8" font-family="Helvetica,sans-Serif" font-size="14.00">NumRotatableBonds &lt;= 5.5</text>
<text text-anchor="middle" x="447" y="-275.8" font-family="Helvetica,sans-Serif" font-size="14.00">gini = 0.452</text>
<text text-anchor="middle" x="447" y="-260.8" font-family="Helvetica,sans-Serif" font-size="14.00">samples = 2233</text>
<text text-anchor="middle" x="447" y="-245.8" font-family="Helvetica,sans-Serif" font-size="14.00">value = [771, 1462]</text>
<text text-anchor="middle" x="447" y="-230.8" font-family="Helvetica,sans-Serif" font-size="14.00">class = Is not a Blocker</text>
</g>
<!-- 4&#45;&gt;5 -->
<g id="edge5" class="edge">
<title>4&#45;&gt;5</title>
<path fill="none" stroke="black" d="M447,-341.91C447,-333.65 447,-324.86 447,-316.3"/>
<polygon fill="black" stroke="black" points="450.5,-316.02 447,-306.02 443.5,-316.02 450.5,-316.02"/>
</g>
<!-- 12 -->
<g id="node13" class="node">
<title>12</title>
<polygon fill="#f9e1cf" stroke="black" points="724,-298.5 572,-298.5 572,-230.5 724,-230.5 724,-298.5"/>
<text text-anchor="middle" x="648" y="-283.3" font-family="Helvetica,sans-Serif" font-size="14.00">gini = 0.491</text>
<text text-anchor="middle" x="648" y="-268.3" font-family="Helvetica,sans-Serif" font-size="14.00">samples = 1068</text>
<text text-anchor="middle" x="648" y="-253.3" font-family="Helvetica,sans-Serif" font-size="14.00">value = [607, 461]</text>
<text text-anchor="middle" x="648" y="-238.3" font-family="Helvetica,sans-Serif" font-size="14.00">class = Is a Blocker</text>
</g>
<!-- 4&#45;&gt;12 -->
<g id="edge12" class="edge">
<title>4&#45;&gt;12</title>
<path fill="none" stroke="black" d="M516.74,-341.91C537.97,-329.55 561.23,-316.01 582.19,-303.81"/>
<polygon fill="black" stroke="black" points="584.14,-306.72 591.02,-298.67 580.62,-300.67 584.14,-306.72"/>
</g>
<!-- 6 -->
<g id="node7" class="node">
<title>6</title>
<polygon fill="#d0e8f9" stroke="black" points="438.5,-187 259.5,-187 259.5,-104 438.5,-104 438.5,-187"/>
<text text-anchor="middle" x="349" y="-171.8" font-family="Helvetica,sans-Serif" font-size="14.00">TPSA &lt;= 46.365</text>
<text text-anchor="middle" x="349" y="-156.8" font-family="Helvetica,sans-Serif" font-size="14.00">gini = 0.491</text>
<text text-anchor="middle" x="349" y="-141.8" font-family="Helvetica,sans-Serif" font-size="14.00">samples = 1183</text>
<text text-anchor="middle" x="349" y="-126.8" font-family="Helvetica,sans-Serif" font-size="14.00">value = [512, 671]</text>
<text text-anchor="middle" x="349" y="-111.8" font-family="Helvetica,sans-Serif" font-size="14.00">class = Is not a Blocker</text>
</g>
<!-- 5&#45;&gt;6 -->
<g id="edge6" class="edge">
<title>5&#45;&gt;6</title>
<path fill="none" stroke="black" d="M413,-222.91C405.4,-213.83 397.26,-204.12 389.43,-194.77"/>
<polygon fill="black" stroke="black" points="392.04,-192.44 382.94,-187.02 386.68,-196.93 392.04,-192.44"/>
</g>
<!-- 9 -->
<g id="node10" class="node">
<title>9</title>
<polygon fill="#7abdee" stroke="black" points="635.5,-187 456.5,-187 456.5,-104 635.5,-104 635.5,-187"/>
<text text-anchor="middle" x="546" y="-171.8" font-family="Helvetica,sans-Serif" font-size="14.00">NumHDonors &lt;= 0.5</text>
<text text-anchor="middle" x="546" y="-156.8" font-family="Helvetica,sans-Serif" font-size="14.00">gini = 0.372</text>
<text text-anchor="middle" x="546" y="-141.8" font-family="Helvetica,sans-Serif" font-size="14.00">samples = 1050</text>
<text text-anchor="middle" x="546" y="-126.8" font-family="Helvetica,sans-Serif" font-size="14.00">value = [259, 791]</text>
<text text-anchor="middle" x="546" y="-111.8" font-family="Helvetica,sans-Serif" font-size="14.00">class = Is not a Blocker</text>
</g>
<!-- 5&#45;&gt;9 -->
<g id="edge9" class="edge">
<title>5&#45;&gt;9</title>
<path fill="none" stroke="black" d="M481.35,-222.91C489.03,-213.83 497.24,-204.12 505.16,-194.77"/>
<polygon fill="black" stroke="black" points="507.93,-196.92 511.71,-187.02 502.58,-192.39 507.93,-196.92"/>
</g>
<!-- 7 -->
<g id="node8" class="node">
<title>7</title>
<polygon fill="#93c9f1" stroke="black" points="258.5,-68 79.5,-68 79.5,0 258.5,0 258.5,-68"/>
<text text-anchor="middle" x="169" y="-52.8" font-family="Helvetica,sans-Serif" font-size="14.00">gini = 0.429</text>
<text text-anchor="middle" x="169" y="-37.8" font-family="Helvetica,sans-Serif" font-size="14.00">samples = 439</text>
<text text-anchor="middle" x="169" y="-22.8" font-family="Helvetica,sans-Serif" font-size="14.00">value = [137, 302]</text>
<text text-anchor="middle" x="169" y="-7.8" font-family="Helvetica,sans-Serif" font-size="14.00">class = Is not a Blocker</text>
</g>
<!-- 6&#45;&gt;7 -->
<g id="edge7" class="edge">
<title>6&#45;&gt;7</title>
<path fill="none" stroke="black" d="M282.23,-103.88C265.85,-93.92 248.37,-83.29 232.17,-73.43"/>
<polygon fill="black" stroke="black" points="233.68,-70.25 223.32,-68.04 230.04,-76.23 233.68,-70.25"/>
</g>
<!-- 8 -->
<g id="node9" class="node">
<title>8</title>
<polygon fill="#fffdfc" stroke="black" points="429,-68 277,-68 277,0 429,0 429,-68"/>
<text text-anchor="middle" x="353" y="-52.8" font-family="Helvetica,sans-Serif" font-size="14.00">gini = 0.5</text>
<text text-anchor="middle" x="353" y="-37.8" font-family="Helvetica,sans-Serif" font-size="14.00">samples = 744</text>
<text text-anchor="middle" x="353" y="-22.8" font-family="Helvetica,sans-Serif" font-size="14.00">value = [375, 369]</text>
<text text-anchor="middle" x="353" y="-7.8" font-family="Helvetica,sans-Serif" font-size="14.00">class = Is a Blocker</text>
</g>
<!-- 6&#45;&gt;8 -->
<g id="edge8" class="edge">
<title>6&#45;&gt;8</title>
<path fill="none" stroke="black" d="M350.49,-103.73C350.79,-95.52 351.11,-86.86 351.41,-78.56"/>
<polygon fill="black" stroke="black" points="354.92,-78.42 351.78,-68.3 347.92,-78.17 354.92,-78.42"/>
</g>
<!-- 10 -->
<g id="node11" class="node">
<title>10</title>
<polygon fill="#59ade9" stroke="black" points="632.5,-68 453.5,-68 453.5,0 632.5,0 632.5,-68"/>
<text text-anchor="middle" x="543" y="-52.8" font-family="Helvetica,sans-Serif" font-size="14.00">gini = 0.239</text>
<text text-anchor="middle" x="543" y="-37.8" font-family="Helvetica,sans-Serif" font-size="14.00">samples = 476</text>
<text text-anchor="middle" x="543" y="-22.8" font-family="Helvetica,sans-Serif" font-size="14.00">value = [66, 410]</text>
<text text-anchor="middle" x="543" y="-7.8" font-family="Helvetica,sans-Serif" font-size="14.00">class = Is not a Blocker</text>
</g>
<!-- 9&#45;&gt;10 -->
<g id="edge10" class="edge">
<title>9&#45;&gt;10</title>
<path fill="none" stroke="black" d="M544.88,-103.73C544.66,-95.52 544.42,-86.86 544.19,-78.56"/>
<polygon fill="black" stroke="black" points="547.68,-78.2 543.91,-68.3 540.69,-78.39 547.68,-78.2"/>
</g>
<!-- 11 -->
<g id="node12" class="node">
<title>11</title>
<polygon fill="#9dcff2" stroke="black" points="829.5,-68 650.5,-68 650.5,0 829.5,0 829.5,-68"/>
<text text-anchor="middle" x="740" y="-52.8" font-family="Helvetica,sans-Serif" font-size="14.00">gini = 0.446</text>
<text text-anchor="middle" x="740" y="-37.8" font-family="Helvetica,sans-Serif" font-size="14.00">samples = 574</text>
<text text-anchor="middle" x="740" y="-22.8" font-family="Helvetica,sans-Serif" font-size="14.00">value = [193, 381]</text>
<text text-anchor="middle" x="740" y="-7.8" font-family="Helvetica,sans-Serif" font-size="14.00">class = Is not a Blocker</text>
</g>
<!-- 9&#45;&gt;11 -->
<g id="edge11" class="edge">
<title>9&#45;&gt;11</title>
<path fill="none" stroke="black" d="M617.96,-103.88C635.78,-93.83 654.8,-83.09 672.4,-73.16"/>
<polygon fill="black" stroke="black" points="674.47,-76.01 681.46,-68.04 671.03,-69.91 674.47,-76.01"/>
</g>
</g>
</svg>
