<?xml version="1.0" encoding="UTF-8" standalone="no"?>
<!DOCTYPE svg PUBLIC "-//W3C//DTD SVG 1.1//EN"
 "http://www.w3.org/Graphics/SVG/1.1/DTD/svg11.dtd">
<!-- Generated by graphviz version 2.50.0 (0)
 -->
<!-- Title: Tree Pages: 1 -->
<svg width="473pt" height="433pt"
 viewBox="0.00 0.00 472.50 433.00" xmlns="http://www.w3.org/2000/svg" xmlns:xlink="http://www.w3.org/1999/xlink">
<g id="graph0" class="graph" transform="scale(1 1) rotate(0) translate(4 429)">
<title>Tree</title>
<polygon fill="white" stroke="transparent" points="-4,4 -4,-429 468.5,-429 468.5,4 -4,4"/>
<!-- 0 -->
<g id="node1" class="node">
<title>0</title>
<polygon fill="#fffdfb" stroke="black" points="279,-425 112,-425 112,-342 279,-342 279,-425"/>
<text text-anchor="middle" x="195.5" y="-409.8" font-family="Helvetica,sans-Serif" font-size="14.00">MolLogP &lt;= 3.524</text>
<text text-anchor="middle" x="195.5" y="-394.8" font-family="Helvetica,sans-Serif" font-size="14.00">gini = 0.5</text>
<text text-anchor="middle" x="195.5" y="-379.8" font-family="Helvetica,sans-Serif" font-size="14.00">samples = 3516</text>
<text text-anchor="middle" x="195.5" y="-364.8" font-family="Helvetica,sans-Serif" font-size="14.00">value = [1774, 1742]</text>
<text text-anchor="middle" x="195.5" y="-349.8" font-family="Helvetica,sans-Serif" font-size="14.00">class = Is a Blocker</text>
</g>
<!-- 1 -->
<g id="node2" class="node">
<title>1</title>
<polygon fill="#f3c4a3" stroke="black" points="179.5,-298.5 27.5,-298.5 27.5,-230.5 179.5,-230.5 179.5,-298.5"/>
<text text-anchor="middle" x="103.5" y="-283.3" font-family="Helvetica,sans-Serif" font-size="14.00">gini = 0.454</text>
<text text-anchor="middle" x="103.5" y="-268.3" font-family="Helvetica,sans-Serif" font-size="14.00">samples = 1494</text>
<text text-anchor="middle" x="103.5" y="-253.3" font-family="Helvetica,sans-Serif" font-size="14.00">value = [974, 520]</text>
<text text-anchor="middle" x="103.5" y="-238.3" font-family="Helvetica,sans-Serif" font-size="14.00">class = Is a Blocker</text>
</g>
<!-- 0&#45;&gt;1 -->
<g id="edge1" class="edge">
<title>0&#45;&gt;1</title>
<path fill="none" stroke="black" d="M163.58,-341.91C154.64,-330.54 144.92,-318.18 135.95,-306.77"/>
<polygon fill="black" stroke="black" points="138.51,-304.36 129.58,-298.67 133.01,-308.69 138.51,-304.36"/>
<text text-anchor="middle" x="126.61" y="-319.79" font-family="Helvetica,sans-Serif" font-size="14.00">True</text>
</g>
<!-- 2 -->
<g id="node3" class="node">
<title>2</title>
<polygon fill="#bbddf6" stroke="black" points="377,-306 198,-306 198,-223 377,-223 377,-306"/>
<text text-anchor="middle" x="287.5" y="-290.8" font-family="Helvetica,sans-Serif" font-size="14.00">TPSA &lt;= 78.645</text>
<text text-anchor="middle" x="287.5" y="-275.8" font-family="Helvetica,sans-Serif" font-size="14.00">gini = 0.478</text>
<text text-anchor="middle" x="287.5" y="-260.8" font-family="Helvetica,sans-Serif" font-size="14.00">samples = 2022</text>
<text text-anchor="middle" x="287.5" y="-245.8" font-family="Helvetica,sans-Serif" font-size="14.00">value = [800, 1222]</text>
<text text-anchor="middle" x="287.5" y="-230.8" font-family="Helvetica,sans-Serif" font-size="14.00">class = Is not a Blocker</text>
</g>
<!-- 0&#45;&gt;2 -->
<g id="edge2" class="edge">
<title>0&#45;&gt;2</title>
<path fill="none" stroke="black" d="M227.42,-341.91C234.48,-332.92 242.04,-323.32 249.32,-314.05"/>
<polygon fill="black" stroke="black" points="252.21,-316.05 255.64,-306.02 246.7,-311.72 252.21,-316.05"/>
<text text-anchor="middle" x="258.61" y="-327.14" font-family="Helvetica,sans-Serif" font-size="14.00">False</text>
</g>
<!-- 3 -->
<g id="node4" class="node">
<title>3</title>
<polygon fill="#99ccf2" stroke="black" points="294.5,-187 80.5,-187 80.5,-104 294.5,-104 294.5,-187"/>
<text text-anchor="middle" x="187.5" y="-171.8" font-family="Helvetica,sans-Serif" font-size="14.00">NumRotatableBonds &lt;= 5.5</text>
<text text-anchor="middle" x="187.5" y="-156.8" font-family="Helvetica,sans-Serif" font-size="14.00">gini = 0.439</text>
<text text-anchor="middle" x="187.5" y="-141.8" font-family="Helvetica,sans-Serif" font-size="14.00">samples = 1329</text>
<text text-anchor="middle" x="187.5" y="-126.8" font-family="Helvetica,sans-Serif" font-size="14.00">value = [433, 896]</text>
<text text-anchor="middle" x="187.5" y="-111.8" font-family="Helvetica,sans-Serif" font-size="14.00">class = Is not a Blocker</text>
</g>
<!-- 2&#45;&gt;3 -->
<g id="edge3" class="edge">
<title>2&#45;&gt;3</title>
<path fill="none" stroke="black" d="M252.81,-222.91C245.05,-213.83 236.75,-204.12 228.76,-194.77"/>
<polygon fill="black" stroke="black" points="231.29,-192.35 222.13,-187.02 225.97,-196.9 231.29,-192.35"/>
</g>
<!-- 6 -->
<g id="node7" class="node">
<title>6</title>
<polygon fill="#fcf1e9" stroke="black" points="464.5,-179.5 312.5,-179.5 312.5,-111.5 464.5,-111.5 464.5,-179.5"/>
<text text-anchor="middle" x="388.5" y="-164.3" font-family="Helvetica,sans-Serif" font-size="14.00">gini = 0.498</text>
<text text-anchor="middle" x="388.5" y="-149.3" font-family="Helvetica,sans-Serif" font-size="14.00">samples = 693</text>
<text text-anchor="middle" x="388.5" y="-134.3" font-family="Helvetica,sans-Serif" font-size="14.00">value = [367, 326]</text>
<text text-anchor="middle" x="388.5" y="-119.3" font-family="Helvetica,sans-Serif" font-size="14.00">class = Is a Blocker</text>
</g>
<!-- 2&#45;&gt;6 -->
<g id="edge6" class="edge">
<title>2&#45;&gt;6</title>
<path fill="none" stroke="black" d="M322.54,-222.91C332.45,-211.43 343.23,-198.94 353.16,-187.44"/>
<polygon fill="black" stroke="black" points="355.98,-189.52 359.87,-179.67 350.68,-184.95 355.98,-189.52"/>
</g>
<!-- 4 -->
<g id="node5" class="node">
<title>4</title>
<polygon fill="#cce6f8" stroke="black" points="179,-68 0,-68 0,0 179,0 179,-68"/>
<text text-anchor="middle" x="89.5" y="-52.8" font-family="Helvetica,sans-Serif" font-size="14.00">gini = 0.489</text>
<text text-anchor="middle" x="89.5" y="-37.8" font-family="Helvetica,sans-Serif" font-size="14.00">samples = 668</text>
<text text-anchor="middle" x="89.5" y="-22.8" font-family="Helvetica,sans-Serif" font-size="14.00">value = [285, 383]</text>
<text text-anchor="middle" x="89.5" y="-7.8" font-family="Helvetica,sans-Serif" font-size="14.00">class = Is not a Blocker</text>
</g>
<!-- 3&#45;&gt;4 -->
<g id="edge4" class="edge">
<title>3&#45;&gt;4</title>
<path fill="none" stroke="black" d="M151.01,-103.73C142.85,-94.61 134.19,-84.93 126.02,-75.81"/>
<polygon fill="black" stroke="black" points="128.58,-73.42 119.3,-68.3 123.36,-78.09 128.58,-73.42"/>
</g>
<!-- 5 -->
<g id="node6" class="node">
<title>5</title>
<polygon fill="#72b9ed" stroke="black" points="376,-68 197,-68 197,0 376,0 376,-68"/>
<text text-anchor="middle" x="286.5" y="-52.8" font-family="Helvetica,sans-Serif" font-size="14.00">gini = 0.348</text>
<text text-anchor="middle" x="286.5" y="-37.8" font-family="Helvetica,sans-Serif" font-size="14.00">samples = 661</text>
<text text-anchor="middle" x="286.5" y="-22.8" font-family="Helvetica,sans-Serif" font-size="14.00">value = [148, 513]</text>
<text text-anchor="middle" x="286.5" y="-7.8" font-family="Helvetica,sans-Serif" font-size="14.00">class = Is not a Blocker</text>
</g>
<!-- 3&#45;&gt;5 -->
<g id="edge5" class="edge">
<title>3&#45;&gt;5</title>
<path fill="none" stroke="black" d="M224.36,-103.73C232.61,-94.61 241.36,-84.93 249.61,-75.81"/>
<polygon fill="black" stroke="black" points="252.28,-78.06 256.39,-68.3 247.09,-73.37 252.28,-78.06"/>
</g>
</g>
</svg>
